<svg width="32" height="32" viewBox="0 0 32 32" fill="none" xmlns="http://www.w3.org/2000/svg">
<rect width="32" height="32" rx="16" fill="white"/>
<path d="M18.9422 21.8079C19.0003 21.8659 19.0463 21.9349 19.0777 22.0107C19.1092 22.0866 19.1254 22.1679 19.1254 22.25C19.1254 22.3322 19.1092 22.4135 19.0777 22.4894C19.0463 22.5652 19.0003 22.6342 18.9422 22.6922C18.8841 22.7503 18.8152 22.7964 18.7393 22.8278C18.6634 22.8592 18.5821 22.8754 18.5 22.8754C18.4179 22.8754 18.3366 22.8592 18.2607 22.8278C18.1848 22.7964 18.1159 22.7503 18.0578 22.6922L11.8078 16.4422C11.7497 16.3842 11.7036 16.3153 11.6722 16.2394C11.6407 16.1635 11.6245 16.0822 11.6245 16C11.6245 15.9179 11.6407 15.8366 11.6722 15.7607C11.7036 15.6848 11.7497 15.6159 11.8078 15.5579L18.0578 9.30785C18.1751 9.19058 18.3342 9.12469 18.5 9.12469C18.6659 9.12469 18.8249 9.19058 18.9422 9.30785C19.0595 9.42513 19.1254 9.58419 19.1254 9.75004C19.1254 9.91589 19.0595 10.075 18.9422 10.1922L13.1336 16L18.9422 21.8079Z" fill="#79858C"/>
</svg>
