<svg width="32" height="32" viewBox="0 0 32 32" fill="none" xmlns="http://www.w3.org/2000/svg">
<rect width="32" height="32" rx="16" fill="white"/>
<path d="M22.875 8.5H12.875C12.7092 8.5 12.5503 8.56585 12.4331 8.68306C12.3158 8.80027 12.25 8.95924 12.25 9.125V12.25H9.125C8.95924 12.25 8.80027 12.3158 8.68306 12.4331C8.56585 12.5503 8.5 12.7092 8.5 12.875V22.875C8.5 23.0408 8.56585 23.1997 8.68306 23.3169C8.80027 23.4342 8.95924 23.5 9.125 23.5H19.125C19.2908 23.5 19.4497 23.4342 19.5669 23.3169C19.6842 23.1997 19.75 23.0408 19.75 22.875V19.75H22.875C23.0408 19.75 23.1997 19.6842 23.3169 19.5669C23.4342 19.4497 23.5 19.2908 23.5 19.125V9.125C23.5 8.95924 23.4342 8.80027 23.3169 8.68306C23.1997 8.56585 23.0408 8.5 22.875 8.5ZM18.5 22.25H9.75V13.5H18.5V22.25ZM22.25 18.5H19.75V12.875C19.75 12.7092 19.6842 12.5503 19.5669 12.4331C19.4497 12.3158 19.2908 12.25 19.125 12.25H13.5V9.75H22.25V18.5Z" fill="#79858C"/>
</svg>
