<svg width="24" height="24" viewBox="0 0 24 24" fill="none" xmlns="http://www.w3.org/2000/svg">
<rect width="24" height="24" rx="6" fill="#F3F4F8"/>
<g clip-path="url(#clip0_6108_875)">
<path d="M19.8711 13.6649C19.7886 13.5736 18.3655 12.0261 16.0587 11.1299C15.9512 9.97867 15.53 8.93182 14.8456 8.13496C13.93 7.0631 12.5994 6.50061 11.0007 6.50061C7.78073 6.50061 5.68139 9.38681 5.59389 9.50993C5.52227 9.61785 5.49533 9.74936 5.51873 9.87675C5.54214 10.0041 5.61407 10.1175 5.71937 10.1929C5.82468 10.2683 5.95515 10.2999 6.08329 10.2811C6.21144 10.2622 6.32726 10.1944 6.40638 10.0918C6.42575 10.0662 8.30134 7.50059 11.0007 7.50059C12.2988 7.50059 13.3669 7.94496 14.0887 8.78619C14.5525 9.32618 14.8662 10.0168 15.0056 10.7862C14.2816 10.5971 13.5364 10.5011 12.7881 10.5005C11.1594 10.5005 9.79257 10.9262 8.83446 11.7311C7.98697 12.4436 7.50073 13.438 7.50073 14.4536C7.49687 14.8481 7.57153 15.2394 7.72035 15.6047C7.86918 15.9701 8.08919 16.3022 8.36759 16.5817C8.97133 17.1829 9.80882 17.5004 10.7882 17.5004C14.0262 17.5004 15.8618 14.8673 16.0687 12.2243C17.2116 12.7323 18.2501 13.4484 19.1311 14.3361C19.1752 14.3848 19.2284 14.4243 19.2878 14.4524C19.3471 14.4805 19.4114 14.4966 19.477 14.4999C19.5426 14.5031 19.6082 14.4934 19.67 14.4713C19.7318 14.4492 19.7887 14.4152 19.8374 14.3711C19.8861 14.327 19.9256 14.2738 19.9537 14.2144C19.9818 14.1551 19.9979 14.0908 20.0011 14.0252C20.0044 13.9596 19.9947 13.8941 19.9726 13.8322C19.9505 13.7704 19.9165 13.7135 19.8724 13.6649H19.8711ZM13.9675 15.0173C13.4156 15.6936 12.4169 16.5004 10.7882 16.5004C9.2082 16.5004 8.50071 15.4723 8.50071 14.4536C8.50071 13.0311 9.84257 11.5005 12.7881 11.5005C13.5678 11.5029 14.3428 11.6225 15.0868 11.8555C15.0587 13.028 14.6544 14.1742 13.9675 15.0173Z" fill="#79858C"/>
</g>
<defs>
<clipPath id="clip0_6108_875">
<rect width="15.9997" height="15.9997" fill="white" transform="translate(4.00024 4.00031)"/>
</clipPath>
</defs>
</svg>
