<svg width="32" height="32" viewBox="0 0 32 32" fill="none" xmlns="http://www.w3.org/2000/svg">
<rect width="32" height="32" rx="16" fill="white"/>
<path d="M20.1922 16.4422L13.9422 22.6922C13.8841 22.7503 13.8152 22.7964 13.7393 22.8278C13.6634 22.8592 13.5821 22.8754 13.5 22.8754C13.4179 22.8754 13.3365 22.8592 13.2607 22.8278C13.1848 22.7964 13.1159 22.7503 13.0578 22.6922C12.9997 22.6342 12.9537 22.5652 12.9222 22.4894C12.8908 22.4135 12.8746 22.3322 12.8746 22.25C12.8746 22.1679 12.8908 22.0866 12.9222 22.0107C12.9537 21.9349 12.9997 21.8659 13.0578 21.8079L18.8664 16L13.0578 10.1922C12.9405 10.075 12.8746 9.91589 12.8746 9.75004C12.8746 9.58419 12.9405 9.42513 13.0578 9.30785C13.1751 9.19058 13.3341 9.12469 13.5 9.12469C13.6658 9.12469 13.8249 9.19058 13.9422 9.30785L20.1922 15.5579C20.2503 15.6159 20.2964 15.6848 20.3278 15.7607C20.3593 15.8366 20.3755 15.9179 20.3755 16C20.3755 16.0822 20.3593 16.1635 20.3278 16.2394C20.2964 16.3153 20.2503 16.3842 20.1922 16.4422Z" fill="#79858C"/>
</svg>
